<svg xmlns="http://www.w3.org/2000/svg" width="920" height="590" viewBox="0 0 920 590" role="img" aria-labelledby="title desc">
<title id="title">Native CLM — seed 91002 quality / compute</title>
<desc id="desc">Final PPL versus estimated train FLOPs normalized to same-seed T1; lower-left is better.</desc>
<rect width="100%" height="100%" fill="white"/>
<text x="40" y="38" font-family="system-ui,sans-serif" font-size="24" font-weight="700" fill="#111827">Native CLM — seed 91002 quality / compute</text>
<text x="40" y="62" font-family="system-ui,sans-serif" font-size="13" fill="#6b7280">Final PPL versus estimated train FLOPs normalized to same-seed T1; lower-left is better.</text>
<line x1="90.0" y1="90" x2="90.0" y2="515" stroke="#f3f4f6"/>
<text x="90.0" y="545" text-anchor="middle" font-family="system-ui,sans-serif" font-size="12" fill="#6b7280">0.8×</text>
<line x1="90" y1="515.0" x2="850" y2="515.0" stroke="#e5e7eb"/>
<text x="78" y="519.0" text-anchor="end" font-family="system-ui,sans-serif" font-size="12" fill="#6b7280">11.48</text>
<line x1="280.0" y1="90" x2="280.0" y2="515" stroke="#f3f4f6"/>
<text x="280.0" y="545" text-anchor="middle" font-family="system-ui,sans-serif" font-size="12" fill="#6b7280">1.5×</text>
<line x1="90" y1="408.7" x2="850" y2="408.7" stroke="#e5e7eb"/>
<text x="78" y="412.7" text-anchor="end" font-family="system-ui,sans-serif" font-size="12" fill="#6b7280">11.79</text>
<line x1="470.0" y1="90" x2="470.0" y2="515" stroke="#f3f4f6"/>
<text x="470.0" y="545" text-anchor="middle" font-family="system-ui,sans-serif" font-size="12" fill="#6b7280">2.2×</text>
<line x1="90" y1="302.5" x2="850" y2="302.5" stroke="#e5e7eb"/>
<text x="78" y="306.5" text-anchor="end" font-family="system-ui,sans-serif" font-size="12" fill="#6b7280">12.09</text>
<line x1="660.0" y1="90" x2="660.0" y2="515" stroke="#f3f4f6"/>
<text x="660.0" y="545" text-anchor="middle" font-family="system-ui,sans-serif" font-size="12" fill="#6b7280">2.9×</text>
<line x1="90" y1="196.3" x2="850" y2="196.3" stroke="#e5e7eb"/>
<text x="78" y="200.3" text-anchor="end" font-family="system-ui,sans-serif" font-size="12" fill="#6b7280">12.40</text>
<line x1="850.0" y1="90" x2="850.0" y2="515" stroke="#f3f4f6"/>
<text x="850.0" y="545" text-anchor="middle" font-family="system-ui,sans-serif" font-size="12" fill="#6b7280">3.6×</text>
<line x1="90" y1="90.0" x2="850" y2="90.0" stroke="#e5e7eb"/>
<text x="78" y="94.0" text-anchor="end" font-family="system-ui,sans-serif" font-size="12" fill="#6b7280">12.71</text>
<circle cx="131.1" cy="218.4" r="7" fill="#374151" stroke="white" stroke-width="2"/>
<text x="141.1" y="209.4" font-family="system-ui,sans-serif" font-size="13" font-weight="600" fill="#111827">T1</text>
<circle cx="750.7" cy="264.8" r="7" fill="#2563eb" stroke="white" stroke-width="2"/>
<text x="760.7" y="255.8" font-family="system-ui,sans-serif" font-size="13" font-weight="600" fill="#111827">M4</text>
<circle cx="758.8" cy="391.8" r="7" fill="#dc2626" stroke="white" stroke-width="2"/>
<text x="768.8" y="382.8" font-family="system-ui,sans-serif" font-size="13" font-weight="600" fill="#111827">X3</text>
<circle cx="759.7" cy="365.3" r="7" fill="#ea580c" stroke="white" stroke-width="2"/>
<text x="769.7" y="356.3" font-family="system-ui,sans-serif" font-size="13" font-weight="600" fill="#111827">X4</text>
<text x="470.0" y="572" text-anchor="middle" font-family="system-ui,sans-serif" font-size="13" fill="#374151">Estimated train FLOPs / same-seed T1</text>
</svg>
