<svg xmlns="http://www.w3.org/2000/svg" width="1200" height="760" viewBox="0 0 1200 760"><rect width="100%" height="100%" fill="white"/><style>text{font-family:ui-sans-serif,system-ui,-apple-system,BlinkMacSystemFont,"Segoe UI",sans-serif;fill:#222}</style><text x="50" y="46" font-size="28" font-weight="700">History Compression 001</text><text x="50" y="74" font-size="15" fill="#555">Decision: HISTORY_COMPRESSION_TO_8_SUPPORTED · minimum observed supported budget: 8</text><text x="110" y="107" font-size="20" font-weight="600">Supported formal seeds</text><line x1="110" y1="370" x2="590" y2="370" stroke="#888"/><line x1="110" y1="125" x2="110" y2="370" stroke="#888"/><polyline points="128.0,370.0 155.8,370.0 239.0,206.7 572.0,125.0" fill="none" stroke="#444" stroke-width="2"/><line x1="110" y1="125.0" x2="590" y2="125.0" stroke="#ddd" stroke-dasharray="3 5"/><text x="98" y="130.0" font-size="13" text-anchor="end" fill="#555">100%</text><line x1="110" y1="186.2" x2="590" y2="186.2" stroke="#ddd" stroke-dasharray="3 5"/><text x="98" y="191.2" font-size="13" text-anchor="end" fill="#555">75%</text><line x1="110" y1="247.5" x2="590" y2="247.5" stroke="#ddd" stroke-dasharray="3 5"/><text x="98" y="252.5" font-size="13" text-anchor="end" fill="#555">50%</text><line x1="110" y1="308.8" x2="590" y2="308.8" stroke="#ddd" stroke-dasharray="3 5"/><text x="98" y="313.8" font-size="13" text-anchor="end" fill="#555">25%</text><line x1="110" y1="370.0" x2="590" y2="370.0" stroke="#ddd" stroke-dasharray="3 5"/><text x="98" y="375.0" font-size="13" text-anchor="end" fill="#555">0%</text><line x1="110" y1="206.7" x2="590" y2="206.7" stroke="#666" stroke-width="2" stroke-dasharray="8 6"/><text x="586" y="200.7" font-size="12" text-anchor="end" fill="#555">gate 67%</text><circle cx="128.0" cy="370.0" r="6" fill="#444"/><text x="128.0" y="360.0" font-size="12" text-anchor="middle">0%</text><text x="128.0" y="392" font-size="13" text-anchor="middle" fill="#555">0 prompts</text><circle cx="155.8" cy="370.0" r="6" fill="#444"/><text x="155.8" y="360.0" font-size="12" text-anchor="middle">0%</text><text x="155.8" y="392" font-size="13" text-anchor="middle" fill="#555">2 prompts</text><circle cx="239.0" cy="206.7" r="6" fill="#444"/><text x="239.0" y="196.7" font-size="12" text-anchor="middle">67%</text><text x="239.0" y="392" font-size="13" text-anchor="middle" fill="#555">8 prompts</text><circle cx="572.0" cy="125.0" r="6" fill="#444"/><text x="572.0" y="115.0" font-size="12" text-anchor="middle">100%</text><text x="572.0" y="392" font-size="13" text-anchor="middle" fill="#555">32 prompts</text><text x="680" y="107" font-size="20" font-weight="600">Median held-out NLL gain</text><line x1="680" y1="370" x2="1160" y2="370" stroke="#888"/><line x1="680" y1="125" x2="680" y2="370" stroke="#888"/><polyline points="698.0,157.9 725.8,157.9 809.0,158.0 1142.0,158.0" fill="none" stroke="#444" stroke-width="2"/><line x1="680" y1="125.0" x2="1160" y2="125.0" stroke="#ddd" stroke-dasharray="3 5"/><text x="668" y="130.0" font-size="13" text-anchor="end" fill="#555">13.00</text><line x1="680" y1="186.2" x2="1160" y2="186.2" stroke="#ddd" stroke-dasharray="3 5"/><text x="668" y="191.2" font-size="13" text-anchor="end" fill="#555">9.75</text><line x1="680" y1="247.5" x2="1160" y2="247.5" stroke="#ddd" stroke-dasharray="3 5"/><text x="668" y="252.5" font-size="13" text-anchor="end" fill="#555">6.50</text><line x1="680" y1="308.8" x2="1160" y2="308.8" stroke="#ddd" stroke-dasharray="3 5"/><text x="668" y="313.8" font-size="13" text-anchor="end" fill="#555">3.25</text><line x1="680" y1="370.0" x2="1160" y2="370.0" stroke="#ddd" stroke-dasharray="3 5"/><text x="668" y="375.0" font-size="13" text-anchor="end" fill="#555">0.00</text><line x1="680" y1="360.6" x2="1160" y2="360.6" stroke="#666" stroke-width="2" stroke-dasharray="8 6"/><text x="1156" y="354.6" font-size="12" text-anchor="end" fill="#555">gate 0.50</text><circle cx="698.0" cy="157.9" r="6" fill="#444"/><text x="698.0" y="147.9" font-size="12" text-anchor="middle">11.25</text><text x="698.0" y="392" font-size="13" text-anchor="middle" fill="#555">0 prompts</text><circle cx="725.8" cy="157.9" r="6" fill="#444"/><text x="725.8" y="147.9" font-size="12" text-anchor="middle">11.25</text><text x="725.8" y="392" font-size="13" text-anchor="middle" fill="#555">2 prompts</text><circle cx="809.0" cy="158.0" r="6" fill="#444"/><text x="809.0" y="148.0" font-size="12" text-anchor="middle">11.25</text><text x="809.0" y="392" font-size="13" text-anchor="middle" fill="#555">8 prompts</text><circle cx="1142.0" cy="158.0" r="6" fill="#444"/><text x="1142.0" y="148.0" font-size="12" text-anchor="middle">11.25</text><text x="1142.0" y="392" font-size="13" text-anchor="middle" fill="#555">32 prompts</text><text x="110" y="422" font-size="20" font-weight="600">Median withheld-history KL</text><line x1="110" y1="685" x2="590" y2="685" stroke="#888"/><line x1="110" y1="440" x2="110" y2="685" stroke="#888"/><polyline points="128.0,440.0 155.8,647.2 239.0,681.8 572.0,684.6" fill="none" stroke="#444" stroke-width="2"/><line x1="110" y1="440.0" x2="590" y2="440.0" stroke="#ddd" stroke-dasharray="3 5"/><text x="98" y="445.0" font-size="13" text-anchor="end" fill="#555">1.9200</text><line x1="110" y1="501.2" x2="590" y2="501.2" stroke="#ddd" stroke-dasharray="3 5"/><text x="98" y="506.2" font-size="13" text-anchor="end" fill="#555">1.4400</text><line x1="110" y1="562.5" x2="590" y2="562.5" stroke="#ddd" stroke-dasharray="3 5"/><text x="98" y="567.5" font-size="13" text-anchor="end" fill="#555">0.9600</text><line x1="110" y1="623.8" x2="590" y2="623.8" stroke="#ddd" stroke-dasharray="3 5"/><text x="98" y="628.8" font-size="13" text-anchor="end" fill="#555">0.4800</text><line x1="110" y1="685.0" x2="590" y2="685.0" stroke="#ddd" stroke-dasharray="3 5"/><text x="98" y="690.0" font-size="13" text-anchor="end" fill="#555">0.0000</text><line x1="110" y1="678.6" x2="590" y2="678.6" stroke="#666" stroke-width="2" stroke-dasharray="8 6"/><text x="586" y="672.6" font-size="12" text-anchor="end" fill="#555">gate 0.0500</text><circle cx="128.0" cy="440.0" r="6" fill="#444"/><text x="128.0" y="430.0" font-size="12" text-anchor="middle">1.9200</text><text x="128.0" y="707" font-size="13" text-anchor="middle" fill="#555">0 prompts</text><circle cx="155.8" cy="647.2" r="6" fill="#444"/><text x="155.8" y="637.2" font-size="12" text-anchor="middle">0.2964</text><text x="155.8" y="707" font-size="13" text-anchor="middle" fill="#555">2 prompts</text><circle cx="239.0" cy="681.8" r="6" fill="#444"/><text x="239.0" y="671.8" font-size="12" text-anchor="middle">0.0249</text><text x="239.0" y="707" font-size="13" text-anchor="middle" fill="#555">8 prompts</text><circle cx="572.0" cy="684.6" r="6" fill="#444"/><text x="572.0" y="674.6" font-size="12" text-anchor="middle">0.0028</text><text x="572.0" y="707" font-size="13" text-anchor="middle" fill="#555">32 prompts</text><text x="680" y="422" font-size="20" font-weight="600">Median withheld-history Top-1 identity</text><line x1="680" y1="685" x2="1160" y2="685" stroke="#888"/><line x1="680" y1="440" x2="680" y2="685" stroke="#888"/><polyline points="698.0,600.8 725.8,485.9 809.0,447.7 1142.0,440.0" fill="none" stroke="#444" stroke-width="2"/><line x1="680" y1="440.0" x2="1160" y2="440.0" stroke="#ddd" stroke-dasharray="3 5"/><text x="668" y="445.0" font-size="13" text-anchor="end" fill="#555">1.000</text><line x1="680" y1="501.2" x2="1160" y2="501.2" stroke="#ddd" stroke-dasharray="3 5"/><text x="668" y="506.2" font-size="13" text-anchor="end" fill="#555">0.750</text><line x1="680" y1="562.5" x2="1160" y2="562.5" stroke="#ddd" stroke-dasharray="3 5"/><text x="668" y="567.5" font-size="13" text-anchor="end" fill="#555">0.500</text><line x1="680" y1="623.8" x2="1160" y2="623.8" stroke="#ddd" stroke-dasharray="3 5"/><text x="668" y="628.8" font-size="13" text-anchor="end" fill="#555">0.250</text><line x1="680" y1="685.0" x2="1160" y2="685.0" stroke="#ddd" stroke-dasharray="3 5"/><text x="668" y="690.0" font-size="13" text-anchor="end" fill="#555">0.000</text><line x1="680" y1="447.7" x2="1160" y2="447.7" stroke="#666" stroke-width="2" stroke-dasharray="8 6"/><text x="1156" y="441.7" font-size="12" text-anchor="end" fill="#555">gate 0.969</text><circle cx="698.0" cy="600.8" r="6" fill="#444"/><text x="698.0" y="590.8" font-size="12" text-anchor="middle">0.344</text><text x="698.0" y="707" font-size="13" text-anchor="middle" fill="#555">0 prompts</text><circle cx="725.8" cy="485.9" r="6" fill="#444"/><text x="725.8" y="475.9" font-size="12" text-anchor="middle">0.812</text><text x="725.8" y="707" font-size="13" text-anchor="middle" fill="#555">2 prompts</text><circle cx="809.0" cy="447.7" r="6" fill="#444"/><text x="809.0" y="437.7" font-size="12" text-anchor="middle">0.969</text><text x="809.0" y="707" font-size="13" text-anchor="middle" fill="#555">8 prompts</text><circle cx="1142.0" cy="440.0" r="6" fill="#444"/><text x="1142.0" y="430.0" font-size="12" text-anchor="middle">1.000</text><text x="1142.0" y="707" font-size="13" text-anchor="middle" fill="#555">32 prompts</text><text x="50" y="735" font-size="13" fill="#666">Coordinates by mode: <tspan>zero_0=E16/G4 · tiny_2=E19/G14,E30/G2,E31/G15 · tiny_8=E19/G14,E24/G6,E24/G15 · full_32=E0/G5</tspan></text></svg>